<mxfile host="app.diagrams.net" modified="2023-05-10T17:15:40.650Z" agent="Mozilla/5.0 (Windows NT 10.0; Win64; x64) AppleWebKit/537.36 (KHTML, like Gecko) Chrome/112.0.0.0 Safari/537.36" version="21.2.9" etag="1oAU1MYVuYyix8j5aC70" type="github">
  <diagram name="PÃ¡gina-1" id="SagUExx2O63IbaSN2h4R">
    <mxGraphModel>
      <root>
        <mxCell id="0" />
        <mxCell id="1" parent="0" />
      </root>
    </mxGraphModel>
  </diagram>
</mxfile>
